<svg xmlns="http://www.w3.org/2000/svg" xmlns:xlink="http://www.w3.org/1999/xlink" width="1327.177" height="260" viewBox="0 0 1327.177 260">
  <defs>
    <linearGradient id="linear-gradient" x1="0.056" y1="0.113" x2="0.923" y2="0.863" gradientUnits="objectBoundingBox">
      <stop offset="0" stop-color="#fff" stop-opacity="0"/>
      <stop offset="1"/>
    </linearGradient>
  </defs>
  <g id="Whitebox_NLU" data-name="Whitebox NLU" transform="translate(-356 -2082)">
    <path id="Path_61702" data-name="Path 61702" d="M8-85.49q7.674,0,9.655,7.427L34-10.728,48.934-78.063q1.98-7.427,9.572-7.427h6.271q7.592,0,9.572,7.427l17,67.336,14.276-67.336q1.98-7.427,9.655-7.427h5.694L105.212-7.427Q103.232,0,95.558,0h-8.5q-7.592,0-9.572-7.427L61.064-72.782,47.861-7.427Q45.881,0,38.207,0H29.79q-7.674,0-9.655-7.427L.578-85.49ZM210.177,0h-7.262A6.985,6.985,0,0,1,197.8-2.146a6.812,6.812,0,0,1-2.146-5.116V-55.948q0-16.834-17.989-16.834-20.3,0-26.489,17.412V-7.262a6.812,6.812,0,0,1-2.146,5.116A6.985,6.985,0,0,1,143.914,0h-7.262V-116.6h7.262a6.985,6.985,0,0,1,5.116,2.146,6.985,6.985,0,0,1,2.146,5.116v38.784Q158.85-86.48,179.893-86.48q30.285,0,30.285,28.634ZM230.89-78.229a6.812,6.812,0,0,1,2.146-5.116,6.985,6.985,0,0,1,5.116-2.146h7.262V-7.262a6.812,6.812,0,0,1-2.146,5.116A6.985,6.985,0,0,1,238.151,0H230.89Zm0-31.11a6.985,6.985,0,0,1,2.146-5.116,6.985,6.985,0,0,1,5.116-2.146h7.262v10.315a6.985,6.985,0,0,1-2.146,5.116,6.985,6.985,0,0,1-5.116,2.146H230.89ZM264.97-71.627a6.985,6.985,0,0,1-5.116-2.146,6.812,6.812,0,0,1-2.146-5.116v-6.6h11.965v-15.1a6.812,6.812,0,0,1,2.146-5.116,6.985,6.985,0,0,1,5.116-2.146H284.2V-85.49h27.149a6.985,6.985,0,0,1,5.116,2.146,6.985,6.985,0,0,1,2.146,5.116v6.6H284.2v42.333q0,9.985,5.116,13.616Q293.6-12.708,304-12.708a63.014,63.014,0,0,0,9.325-.743q7.014,0,7.014,5.611V-.825A76.636,76.636,0,0,1,304,.99q-17.412,0-25.251-6.106-9.077-7.014-9.077-24.178V-71.627ZM387.1-50.007q-.908-11.305-4.291-16.091-4.869-6.684-17.082-6.684-12.378,0-17.907,6.6-4.374,5.281-5.2,16.174ZM368.2.99q-40.435,0-40.435-43.735T365.727-86.48q20.547,0,29.212,12.791,7.014,10.315,7.014,30.862,0,6.684-7.262,6.684h-52.07q.66,23.436,25.581,23.436a75.241,75.241,0,0,0,26.241-4.951,12.376,12.376,0,0,1,2.971-.413q3.878,0,3.878,4.208v6.932Q388.089.99,368.2.99Zm63.705-43.735q0,14.111,5.034,21.208,6.189,8.83,20.877,8.83t20.877-8.83q4.951-7.1,4.951-21.208,0-14.276-4.7-21.208Q473-72.782,458.4-72.782q-20.3,0-26.489,17.494Zm0-27.809q7.674-15.926,28.717-15.926,37.546,0,37.546,43.735T457.818.99q-40.435,0-40.435-43.735V-116.6h7.262a6.985,6.985,0,0,1,5.116,2.146,6.985,6.985,0,0,1,2.146,5.116ZM553.293-72.7q-14.688,0-20.877,8.747-5.034,7.1-5.034,21.208t5.034,21.29q6.189,8.747,20.877,8.747t20.877-8.747q4.951-7.179,4.951-21.29t-4.951-21.208Q567.982-72.7,553.293-72.7Zm0-13.781q40.352,0,40.352,43.735T553.293.99q-40.435,0-40.435-43.735T553.293-86.48ZM632.76-35.813q-6.106,0-7.674,4.786L616.421-5.446Q614.523,0,607.261,0H600l11.965-35.236a20.086,20.086,0,0,1,7.427-10.48q-3.3-2.311-5.776-9.82L603.383-85.49h7.262q7.262,0,9.242,5.941l8.665,25.333q1.733,4.456,7.674,4.539h1.815q5.941-.083,7.674-4.539l8.665-25.333q1.98-5.941,9.242-5.941h7.262L660.651-55.536q-2.476,7.509-5.776,9.82a20.086,20.086,0,0,1,7.427,10.48L674.267,0h-7.262q-7.262,0-9.16-5.446l-8.665-25.581q-1.568-4.786-7.674-4.786Zm51.987-73.772a7.312,7.312,0,0,1,2.228-5.364,7.312,7.312,0,0,1,5.364-2.228h15.679L763.141-14.193V-117.178h15.266V-7.592a7.312,7.312,0,0,1-2.228,5.364A7.312,7.312,0,0,1,770.815,0H755.136L700.013-102.984V-7.592a7.312,7.312,0,0,1-2.228,5.364A7.408,7.408,0,0,1,692.339,0h-7.592Zm113.382-7.592h7.592a7.408,7.408,0,0,1,5.446,2.228,7.312,7.312,0,0,1,2.228,5.364v66.428q0,13.946,8.912,21.95,8.582,7.757,22.693,7.757,13.781,0,31.522-5.529a7.587,7.587,0,0,1,5.446,2.228,7.312,7.312,0,0,1,2.228,5.364v4.951Q863.567.99,845,.99q-21.125,0-33.75-11.47-13.121-11.8-13.121-32.678ZM979.177-32.265q0,15.844-13.038,25Q954.5.908,937.5.99q-17.082,0-28.882-8.169Q895.5-16.339,895.5-32.265V-116.6h15.266v84.335q0,9.407,8.334,14.441,7.1,4.374,17.907,4.374h.413q11.058,0,18.237-4.374,8.252-5.116,8.252-14.441V-116.6h15.266Z" transform="translate(704 2257.611)" fill="#4d4d4d"/>
    <g id="Group_18525" data-name="Group 18525" transform="translate(-496.022 472.593)">
      <path id="Fill-1" d="M19.311,198.229a130.007,130.007,0,1,1,240.675-66.316A132.328,132.328,0,0,1,126.47,259.994H6.5l12.627-21.455a39.1,39.1,0,0,0,.185-40.31" transform="translate(852.022 1609.407)" fill="#556ff6" fill-rule="evenodd"/>
      <path id="Fill-1-2" data-name="Fill-1" d="M19.311,198.229a130.007,130.007,0,1,1,240.675-66.316A132.328,132.328,0,0,1,126.47,259.994H6.5l12.627-21.455a39.1,39.1,0,0,0,.185-40.31" transform="translate(852.022 1609.407)" fill-rule="evenodd" opacity="0.75" fill="url(#linear-gradient)" style="mix-blend-mode: multiply;isolation: isolate"/>
    </g>
    <path id="Icon" d="M1443.743,308.254l33.8-19.516v38.269l-22.348,12.9.042,5.325v18.514l-15.321,8.846,46.011,26.562a6.736,6.736,0,1,0,3.756-7.291l-17-9.815-16.38-9.458,33.143-19.134,22.348,12.9,20.625-11.955.581.335,14.741,8.51v-53.9a6.736,6.736,0,1,0-8.194,0V349.06l-22.273-12.86-10.868-6.276v-25.8l-4.632-2.627-16.034-9.258v-17.69l-45.717,26.4a6.737,6.737,0,1,0,3.719,7.313Z" transform="translate(-1004.384 1872.455)" fill="#fff" stroke="#fff" stroke-width="4" fill-rule="evenodd"/>
  </g>
</svg>
